<?xml version="1.0" ?><svg enable-background="new 0 0 32 32" version="1.1" viewBox="0 0 32 32" xml:space="preserve" xmlns="http://www.w3.org/2000/svg" xmlns:xlink="http://www.w3.org/1999/xlink"><g id="Layer_6"/><g id="Layer_4_copy_2"><g><circle cx="16" cy="16" fill="#D3D3D3" r="16"/><circle cx="16" cy="16" fill="#FFFFFF" r="13.809"/><circle cx="16" cy="16" r="11.597"/></g></g><g id="Official_copy_3"><g><path d="M15.942,15.791c-0.382-0.353-0.806-0.849-0.99-1.287c-0.028-0.057-0.085-0.198,0-0.311    c0.17-0.226,0.198-0.241,0.382-0.453c0.127-0.156,0.226-0.297,0.184-0.425l-0.636-1.655c-0.057-0.113-0.226-0.127-0.424-0.142    c-0.17,0-0.353,0-0.481,0.028c-0.283,0.099-0.863,0.863-0.933,1.415c-0.156,1.202,0.933,2.801,2.022,3.792    c1.089,1.005,2.772,1.953,3.96,1.684c0.551-0.127,1.259-0.764,1.315-1.061c0.028-0.127,0.014-0.311-0.014-0.481    c-0.014-0.198-0.057-0.339-0.17-0.396l-1.442-0.665c-0.128-0.071-0.255-0.014-0.382,0.142c-0.155,0.212-0.227,0.297-0.41,0.523    c-0.099,0.127-0.17,0.212-0.283,0.226c-0.128,0.028-0.297-0.042-0.325-0.042C16.861,16.527,16.338,16.145,15.942,15.791    L15.942,15.791z M11.191,20.87l0.82-2.08c-0.905-1.047-1.457-2.42-1.457-3.919c0-3.311,2.687-5.985,5.996-5.985    c3.309,0,5.982,2.674,5.982,5.985c0,3.311-2.673,5.999-5.982,5.999c-1.329,0-2.546-0.425-3.535-1.16L11.191,20.87z M10.186,18.833    L9.055,23.36l4.044-1.84c1.032,0.538,2.206,0.849,3.451,0.849c4.129,0,7.481-3.354,7.481-7.499c0-4.131-3.352-7.485-7.481-7.485    c-4.144,0-7.495,3.353-7.495,7.484C9.055,16.328,9.479,17.687,10.186,18.833L10.186,18.833z" fill="#FFFFFF"/></g></g></svg>